<?xml version="1.0" encoding="utf-8"?>
<!-- Generator: Adobe Illustrator 15.1.0, SVG Export Plug-In . SVG Version: 6.00 Build 0)  -->
<!DOCTYPE svg PUBLIC "-//W3C//DTD SVG 1.1//EN" "http://www.w3.org/Graphics/SVG/1.1/DTD/svg11.dtd">
<svg version="1.1" id="Layer_1" xmlns="http://www.w3.org/2000/svg" xmlns:xlink="http://www.w3.org/1999/xlink" x="0px" y="0px"
	 width="1500px" height="617px" viewBox="0 0 1500 617" enable-background="new 0 0 1500 617" xml:space="preserve">
<path fill="#64A544" d="M129.166,15.349H5v585.479h124.166V15.349z M456.827,600.828h124.166v-410.44H456.827V600.828z
	 M774.14,600.828h143.135l143.145-410.44H937.108c0,0-67.255,223.333-87.085,294.034h-1.726
	c-19.834-70.702-87.952-294.034-87.952-294.034H629.283L774.14,600.828z M1495,190.387h-119.854v56.046
	c-20.692-43.113-68.986-67.253-125.036-67.253c-101.739,0-181.936,82.776-181.936,216.425c0,134.521,77.606,216.426,175.91,216.426
	c68.971,0,110.369-33.624,131.062-70.702v59.498H1495V190.387z M1371.695,405.951c0,75.881-46.562,111.239-93.125,111.239
	c-50.883,0-83.637-51.741-83.637-121.585c0-68.986,34.485-121.576,87.945-121.576c43.974,0,88.816,36.213,88.816,111.23V405.951z
	 M161.072,385.259c199.183,0,245.745-166.418,245.745-194.872H389.57c-199.183,0-245.748,166.424-245.748,194.872H161.072z
	 M143.822,400.784c0,30.18,34.493,200.043,249.2,200.043h17.243c0-30.176-34.493-200.043-249.193-200.043H143.822z M593.067,77.43
	c0-38.803-28.454-72.43-74.156-72.43c-45.7,0-74.154,33.627-74.154,72.43s28.454,72.433,74.154,72.433
	C564.613,149.863,593.067,116.233,593.067,77.43"/>
</svg>
