<?xml version="1.0" encoding="UTF-8" standalone="no"?><!DOCTYPE svg PUBLIC "-//W3C//DTD SVG 1.1//EN" "http://www.w3.org/Graphics/SVG/1.1/DTD/svg11.dtd"><svg width="100%" height="100%" viewBox="0 0 6209 2487" version="1.1" xmlns="http://www.w3.org/2000/svg" xmlns:xlink="http://www.w3.org/1999/xlink" xml:space="preserve" xmlns:serif="http://www.serif.com/" style="fill-rule:evenodd;clip-rule:evenodd;stroke-linejoin:round;stroke-miterlimit:2;"><rect id="Artboard1" x="0" y="0" width="6208.33" height="2486.18" style="fill:none;"/><clipPath id="_clip1"><rect x="0" y="0" width="6208.33" height="2486.18"/></clipPath><g clip-path="url(#_clip1)"><path d="M517.358,2.506l-517.358,0l0,2439.5l517.358,-0l0,-2439.5Zm1365.26,2439.5l517.358,-0l-0,-1710.17l-517.359,0l0,1710.17Zm1322.14,-0l596.396,-0l596.437,-1710.17l-513.8,0c0,0 -280.229,930.554 -362.854,1225.14l-7.192,-0c-82.641,-294.592 -366.466,-1225.14 -366.466,-1225.14l-546.092,0l603.571,1710.17Zm3003.58,-1710.17l-499.391,0l-0,233.525c-86.217,-179.637 -287.442,-280.221 -520.984,-280.221c-423.912,0 -758.066,344.9 -758.066,901.771c-0,560.504 323.358,901.775 732.958,901.775c287.379,0 459.871,-140.1 546.092,-294.592l-0,247.909l499.391,-0l0,-1710.17Zm-513.77,898.183c-0.001,316.171 -194.009,463.496 -388.021,463.496c-212.013,0 -348.488,-215.587 -348.488,-506.604c0,-287.442 143.688,-506.567 366.438,-506.567c183.225,0 370.066,150.888 370.066,463.459l0,86.216l0.005,0Zm-5044.26,-86.216c829.929,-0 1023.94,-693.409 1023.94,-811.967l-71.863,0c-829.929,0 -1023.95,693.433 -1023.95,811.967l71.875,-0Zm-71.875,64.687c-0,125.75 143.721,833.513 1038.33,833.513l71.846,-0c0,-125.734 -143.721,-833.513 -1038.3,-833.513l-71.875,0Z" style="fill:#64a544;fill-rule:nonzero;"/><path d="M2150.47,2.506c150.132,0 272.021,121.888 272.021,272.02c-0,150.133 -121.889,272.021 -272.021,272.021c-150.132,-0 -272.02,-121.888 -272.02,-272.021c-0,-150.132 121.888,-272.02 272.02,-272.02Zm100.505,407.2l-60.948,16.83l-16.878,36.624l-73.08,-29.062l-4.244,9.781l83.077,33.039l19.156,-41.576l63.98,-17.667l0,-36.185l-11.063,-0l0,28.216Zm-65.967,-193.138l2.92,-27.966l-11.009,-1.053l-2.877,27.553c-34.568,-3.603 -62.345,4.116 -82.61,23.081c-25.429,23.8 -31.353,58.911 -32.165,72.657l-19.185,2.622l1.564,10.486l17.564,-2.402l-0,94.005l90.92,-1.746l4.687,-0.095l0.677,-4.44c0.044,-0.295 4.717,-29.46 26.651,-44.652c12.063,-8.359 27.33,-11.069 45.376,-8.037l12.495,2.088l-6.904,-10.191c-3.356,-4.955 -12.008,-20.861 -7.901,-28.712c1.673,-3.192 5.857,-5.024 12.444,-5.444c5.578,-0.358 9.56,0.994 12.171,4.127c8.353,10.021 2.963,35.354 0.18,44.271l-2.129,6.814l36.267,0l0.664,-4.567c0.19,-1.311 4.549,-32.535 -5.408,-66.558c-9.293,-31.756 -33.227,-71.639 -94.392,-81.841Zm-227.601,139.619l12.012,34.501l42.042,-35.649l-2.403,-31.051l-51.651,32.199Zm52.853,-44.849l-0,-25.301l-60.062,21.851l8.411,31.05l51.651,-27.6Zm59.273,-93.792c30.837,-30.679 79.815,-43.012 145.574,-36.64l1.113,-10.539c-69.312,-6.709 -121.346,6.692 -154.66,39.835c-49.367,49.118 -39.218,122.903 -38.76,126.022l10.955,-1.471c-0.104,-0.711 -9.9,-71.762 35.778,-117.207Zm-115.73,71.942l57.658,-14.951l8.408,-23.001l-66.066,3.451l-0,34.501Zm82.883,-69.001l-70.87,-8.05l-8.408,29.901l67.265,-2.301l12.013,-19.55Zm21.233,-20.983l-71.633,-27.758l-15.351,24.492l73.339,19.595l13.645,-16.329Zm25.613,-18.118l-58.858,-48.3l-30.029,26.449l68.467,36.802l20.42,-14.951Zm33.634,-14.95l-48.049,-65.55l-31.231,22.999l54.054,52.901l25.226,-10.35Zm34.835,-6.9l-22.823,-75.902l-38.438,14.951l36.037,65.552l25.224,-4.601Zm86.486,1.15l81.683,-75.902l-44.445,-6.899l-61.262,80.502l24.024,2.299Zm-31.231,-2.299l52.852,-82.802l-48.047,-2.3l-22.823,80.501l18.018,4.601Zm-22.822,-0l6.005,-86.252l-42.042,6.899l13.214,79.353l22.823,-0Z" style="fill:#64a544;"/></g></svg>